A party of dignitaries arrive on the shore of an island to pay homage to some dead heroes but are outraged to see a couple making love on the beach.  The man is dragged away by police, but he manages to persuade them to release him for services he has rendered to the state.  The man and the women subsequently meet up at a party, but their attempts to get together are constantly frustrated by their family, guests and other distractions... 

Complete name : L.Age.D.Or.1930.720p.BluRay.x264-CiNEFiLE.mkv
Format : Matroska
File size : 2.19 GiB
Duration : 1h 2mn
Overall bit rate : 4 996 Kbps
Encoded date : UTC 2011-06-07 07:40:12
Writing application : mkvmerge v4.4.0 ('Die Wiederkehr') built on Oct 31 2010 21:52:48
Writing library : libebml v1.0.0 + libmatroska v1.0.0

Video
Format : AVC
Format/Info : Advanced Video Codec
Format profile : High@L3.1
Format settings, CABAC : Yes
Format settings, ReFrames : 5 frames
Format settings, GOP : M=1, N=16
Muxing mode : Header stripping
Codec ID : V_MPEG4/ISO/AVC
Duration : 1h 2mn
Bit rate : 4 739 Kbps
Width : 848 pixels
Height : 720 pixels
Display aspect ratio : 1.178
Frame rate : 23.976 fps
Color space : YUV
Chroma subsampling : 4:2:0
Bit depth : 8 bits
Scan type : Progressive
Bits/(Pixel*Frame) : 0.324
Stream size : 2.03 GiB (93%)
Writing library : x264 core 115 r1995 c1e60b9

Audio
Format : AC-3
Format/Info : Audio Coding 3
Mode extension : CM (complete main)
Muxing mode : Header stripping
Codec ID : A_AC3
Duration : 1h 2mn
Bit rate mode : Constant
Bit rate : 256 Kbps
Channel(s) : 2 channels
Channel positions : Front: L R
Sampling rate : 48.0 KHz
Bit depth : 16 bits
Compression mode : Lossy
Stream size : 115 MiB (5%)
Language : French

Text
Format : UTF-8
Codec ID : S_TEXT/UTF8
Codec ID/Info : UTF-8 Plain Text
Language : English
 
http://www.imdb.com/title/tt0021577/

French audio; English subtitles (muxed in mkv)